<?xml version="1.0" encoding="UTF-8" standalone="no"?>
<!DOCTYPE svg PUBLIC "-//W3C//DTD SVG 1.1//EN"
 "http://www.w3.org/Graphics/SVG/1.1/DTD/svg11.dtd">
<!-- Generated by graphviz version 2.47.0 (20210316.0004)
 -->
<!-- Title: dbml Pages: 1 -->
<svg width="1698pt" height="2165pt"
 viewBox="0.00 0.00 1697.86 2164.96" xmlns="http://www.w3.org/2000/svg" xmlns:xlink="http://www.w3.org/1999/xlink">
<g id="graph0" class="graph" transform="scale(1 1) rotate(0) translate(4 2160.96)">
<title>dbml</title>
<!-- events -->
<g id="events" class="node">
<title>events</title>
<ellipse fill="none" stroke="black" stroke-width="0" cx="877.46" cy="-1061.14" rx="268.9" ry="342.48"/>
<polygon fill="#1d71b8" stroke="transparent" points="689.46,-1241.14 689.46,-1301.14 1065.46,-1301.14 1065.46,-1241.14 689.46,-1241.14"/>
<polygon fill="none" stroke="#29235c" points="689.46,-1241.14 689.46,-1301.14 1065.46,-1301.14 1065.46,-1241.14 689.46,-1241.14"/>
<text text-anchor="start" x="768.08" y="-1262.34" font-family="Helvetica,sans-Serif" font-weight="bold" font-size="32.00" fill="#ffffff"> &#160;&#160;&#160;&#160;&#160;&#160;events &#160;&#160;&#160;&#160;&#160;&#160;</text>
<polygon fill="#e7e2dd" stroke="transparent" points="689.46,-1181.14 689.46,-1241.14 1065.46,-1241.14 1065.46,-1181.14 689.46,-1181.14"/>
<polygon fill="none" stroke="#29235c" points="689.46,-1181.14 689.46,-1241.14 1065.46,-1241.14 1065.46,-1181.14 689.46,-1181.14"/>
<text text-anchor="start" x="700.46" y="-1202.34" font-family="Helvetica,sans-Serif" font-weight="bold" font-size="32.00" fill="#29235c">event_id</text>
<text text-anchor="start" x="821.39" y="-1202.34" font-family="Helvetica,sans-Serif" font-size="32.00" fill="#29235c"> &#160;&#160;&#160;</text>
<text text-anchor="start" x="956.66" y="-1202.34" font-family="Helvetica,sans-Serif" font-style="italic" font-size="32.00" fill="#29235c">integer</text>
<polygon fill="#e7e2dd" stroke="transparent" points="689.46,-1121.14 689.46,-1181.14 1065.46,-1181.14 1065.46,-1121.14 689.46,-1121.14"/>
<polygon fill="none" stroke="#29235c" points="689.46,-1121.14 689.46,-1181.14 1065.46,-1181.14 1065.46,-1121.14 689.46,-1121.14"/>
<text text-anchor="start" x="700.04" y="-1141.34" font-family="Helvetica,sans-Serif" font-size="32.00" fill="#29235c">creator_user_id &#160;&#160;&#160;</text>
<text text-anchor="start" x="957.06" y="-1142.34" font-family="Helvetica,sans-Serif" font-style="italic" font-size="32.00" fill="#29235c">integer</text>
<polygon fill="#e7e2dd" stroke="transparent" points="689.46,-1061.14 689.46,-1121.14 1065.46,-1121.14 1065.46,-1061.14 689.46,-1061.14"/>
<polygon fill="none" stroke="#29235c" points="689.46,-1061.14 689.46,-1121.14 1065.46,-1121.14 1065.46,-1061.14 689.46,-1061.14"/>
<text text-anchor="start" x="700.46" y="-1081.34" font-family="Helvetica,sans-Serif" font-size="32.00" fill="#29235c">event_name &#160;&#160;&#160;</text>
<text text-anchor="start" x="947.79" y="-1082.34" font-family="Helvetica,sans-Serif" font-style="italic" font-size="32.00" fill="#29235c">varchar</text>
<polygon fill="#e7e2dd" stroke="transparent" points="689.46,-1001.14 689.46,-1061.14 1065.46,-1061.14 1065.46,-1001.14 689.46,-1001.14"/>
<polygon fill="none" stroke="#29235c" points="689.46,-1001.14 689.46,-1061.14 1065.46,-1061.14 1065.46,-1001.14 689.46,-1001.14"/>
<text text-anchor="start" x="700.46" y="-1021.34" font-family="Helvetica,sans-Serif" font-size="32.00" fill="#29235c">event_desc &#160;&#160;&#160;</text>
<text text-anchor="start" x="947.79" y="-1022.34" font-family="Helvetica,sans-Serif" font-style="italic" font-size="32.00" fill="#29235c">varchar</text>
<polygon fill="#e7e2dd" stroke="transparent" points="689.46,-941.14 689.46,-1001.14 1065.46,-1001.14 1065.46,-941.14 689.46,-941.14"/>
<polygon fill="none" stroke="#29235c" points="689.46,-941.14 689.46,-1001.14 1065.46,-1001.14 1065.46,-941.14 689.46,-941.14"/>
<text text-anchor="start" x="700.46" y="-961.34" font-family="Helvetica,sans-Serif" font-size="32.00" fill="#29235c">event_loc &#160;&#160;&#160;</text>
<text text-anchor="start" x="947.79" y="-962.34" font-family="Helvetica,sans-Serif" font-style="italic" font-size="32.00" fill="#29235c">varchar</text>
<polygon fill="#e7e2dd" stroke="transparent" points="689.46,-881.14 689.46,-941.14 1065.46,-941.14 1065.46,-881.14 689.46,-881.14"/>
<polygon fill="none" stroke="#29235c" points="689.46,-881.14 689.46,-941.14 1065.46,-941.14 1065.46,-881.14 689.46,-881.14"/>
<text text-anchor="start" x="700.46" y="-901.34" font-family="Helvetica,sans-Serif" font-size="32.00" fill="#29235c">created_at &#160;&#160;&#160;</text>
<text text-anchor="start" x="906.9" y="-902.34" font-family="Helvetica,sans-Serif" font-style="italic" font-size="32.00" fill="#29235c">timestamp</text>
<polygon fill="#e7e2dd" stroke="transparent" points="689.46,-821.14 689.46,-881.14 1065.46,-881.14 1065.46,-821.14 689.46,-821.14"/>
<polygon fill="none" stroke="#29235c" points="689.46,-821.14 689.46,-881.14 1065.46,-881.14 1065.46,-821.14 689.46,-821.14"/>
<text text-anchor="start" x="700.46" y="-841.34" font-family="Helvetica,sans-Serif" font-size="32.00" fill="#29235c">starts_on &#160;&#160;&#160;</text>
<text text-anchor="start" x="906.9" y="-842.34" font-family="Helvetica,sans-Serif" font-style="italic" font-size="32.00" fill="#29235c">timestamp</text>
<polygon fill="none" stroke="#29235c" stroke-width="2" points="688.46,-820.14 688.46,-1302.14 1066.46,-1302.14 1066.46,-820.14 688.46,-820.14"/>
</g>
<!-- users -->
<g id="users" class="node">
<title>users</title>
<ellipse fill="none" stroke="black" stroke-width="0" cx="1436.01" cy="-1151.14" rx="253.7" ry="214.92"/>
<polygon fill="#1d71b8" stroke="transparent" points="1259.01,-1241.14 1259.01,-1301.14 1614.01,-1301.14 1614.01,-1241.14 1259.01,-1241.14"/>
<polygon fill="none" stroke="#29235c" points="1259.01,-1241.14 1259.01,-1301.14 1614.01,-1301.14 1614.01,-1241.14 1259.01,-1241.14"/>
<text text-anchor="start" x="1335.14" y="-1262.34" font-family="Helvetica,sans-Serif" font-weight="bold" font-size="32.00" fill="#ffffff"> &#160;&#160;&#160;&#160;&#160;&#160;users &#160;&#160;&#160;&#160;&#160;&#160;</text>
<polygon fill="#e7e2dd" stroke="transparent" points="1259.01,-1181.14 1259.01,-1241.14 1614.01,-1241.14 1614.01,-1181.14 1259.01,-1181.14"/>
<polygon fill="none" stroke="#29235c" points="1259.01,-1181.14 1259.01,-1241.14 1614.01,-1241.14 1614.01,-1181.14 1259.01,-1181.14"/>
<text text-anchor="start" x="1270.01" y="-1202.34" font-family="Helvetica,sans-Serif" font-weight="bold" font-size="32.00" fill="#29235c">user_id</text>
<text text-anchor="start" x="1374.92" y="-1202.34" font-family="Helvetica,sans-Serif" font-size="32.00" fill="#29235c"> &#160;&#160;&#160;</text>
<text text-anchor="start" x="1505.21" y="-1202.34" font-family="Helvetica,sans-Serif" font-style="italic" font-size="32.00" fill="#29235c">integer</text>
<polygon fill="#e7e2dd" stroke="transparent" points="1259.01,-1121.14 1259.01,-1181.14 1614.01,-1181.14 1614.01,-1121.14 1259.01,-1121.14"/>
<polygon fill="none" stroke="#29235c" points="1259.01,-1121.14 1259.01,-1181.14 1614.01,-1181.14 1614.01,-1121.14 1259.01,-1121.14"/>
<text text-anchor="start" x="1270.01" y="-1141.34" font-family="Helvetica,sans-Serif" font-size="32.00" fill="#29235c">username &#160;&#160;&#160;</text>
<text text-anchor="start" x="1496.34" y="-1142.34" font-family="Helvetica,sans-Serif" font-style="italic" font-size="32.00" fill="#29235c">varchar</text>
<polygon fill="#e7e2dd" stroke="transparent" points="1259.01,-1061.14 1259.01,-1121.14 1614.01,-1121.14 1614.01,-1061.14 1259.01,-1061.14"/>
<polygon fill="none" stroke="#29235c" points="1259.01,-1061.14 1259.01,-1121.14 1614.01,-1121.14 1614.01,-1061.14 1259.01,-1061.14"/>
<text text-anchor="start" x="1270.01" y="-1081.34" font-family="Helvetica,sans-Serif" font-size="32.00" fill="#29235c">role &#160;&#160;&#160;</text>
<text text-anchor="start" x="1496.34" y="-1082.34" font-family="Helvetica,sans-Serif" font-style="italic" font-size="32.00" fill="#29235c">varchar</text>
<polygon fill="#e7e2dd" stroke="transparent" points="1259.01,-1001.14 1259.01,-1061.14 1614.01,-1061.14 1614.01,-1001.14 1259.01,-1001.14"/>
<polygon fill="none" stroke="#29235c" points="1259.01,-1001.14 1259.01,-1061.14 1614.01,-1061.14 1614.01,-1001.14 1259.01,-1001.14"/>
<text text-anchor="start" x="1269.64" y="-1021.34" font-family="Helvetica,sans-Serif" font-size="32.00" fill="#29235c">created_at &#160;&#160;&#160;</text>
<text text-anchor="start" x="1455.73" y="-1022.34" font-family="Helvetica,sans-Serif" font-style="italic" font-size="32.00" fill="#29235c">timestamp</text>
<polygon fill="none" stroke="#29235c" stroke-width="2" points="1257.51,-1000.14 1257.51,-1302.14 1614.51,-1302.14 1614.51,-1000.14 1257.51,-1000.14"/>
</g>
<!-- events&#45;&gt;users -->
<!-- events&#45;&gt;users -->
<g id="edge6" class="edge">
<title>events:e&#45;&gt;users:w</title>
<path fill="none" stroke="#29235c" stroke-width="3" d="M1066.46,-1151.14C1152.19,-1151.14 1167.65,-1206.55 1247.89,-1210.87"/>
<polygon fill="#29235c" stroke="#29235c" stroke-width="3" points="1247.92,-1214.38 1258.01,-1211.14 1248.11,-1207.38 1247.92,-1214.38"/>
<text text-anchor="middle" x="1266.9" y="-1220.74" font-family="Helvetica,sans-Serif" font-size="32.00" fill="#29235c">1</text>
<text text-anchor="middle" x="1057.56" y="-1160.74" font-family="Helvetica,sans-Serif" font-size="32.00" fill="#29235c">1</text>
</g>
<!-- users&#45;&gt;events -->
<!-- users&#45;&gt;events -->
<g id="edge4" class="edge">
<title>users:e&#45;&gt;events:w</title>
<path fill="none" stroke="#29235c" stroke-width="3" d="M1615.01,-1211.14C1683.88,-1211.14 1660.9,-1315.66 1614.01,-1366.1 1472,-1518.89 1354.59,-1395.09 1146.16,-1403.38 1120.81,-1404.39 707.43,-1421.29 689.46,-1403.38 612.51,-1326.74 578.5,-1161.87 678.37,-1151.64"/>
<polygon fill="#29235c" stroke="#29235c" stroke-width="3" points="678.64,-1155.13 688.46,-1151.14 678.3,-1148.14 678.64,-1155.13"/>
<text text-anchor="middle" x="682.23" y="-1160.74" font-family="Helvetica,sans-Serif" font-size="32.00" fill="#29235c">*</text>
<text text-anchor="middle" x="1623.9" y="-1220.74" font-family="Helvetica,sans-Serif" font-size="32.00" fill="#29235c">1</text>
</g>
<!-- manager_event -->
<g id="manager_event" class="node">
<title>manager_event</title>
<ellipse fill="none" stroke="black" stroke-width="0" cx="286.38" cy="-1409.14" rx="263.09" ry="130.22"/>
<polygon fill="#1d71b8" stroke="transparent" points="102.38,-1439.14 102.38,-1499.14 470.38,-1499.14 470.38,-1439.14 102.38,-1439.14"/>
<polygon fill="none" stroke="#29235c" points="102.38,-1439.14 102.38,-1499.14 470.38,-1499.14 470.38,-1439.14 102.38,-1439.14"/>
<text text-anchor="start" x="112.98" y="-1460.34" font-family="Helvetica,sans-Serif" font-weight="bold" font-size="32.00" fill="#ffffff"> &#160;&#160;&#160;&#160;&#160;&#160;manager_event &#160;&#160;&#160;&#160;&#160;&#160;</text>
<polygon fill="#e7e2dd" stroke="transparent" points="102.38,-1379.14 102.38,-1439.14 470.38,-1439.14 470.38,-1379.14 102.38,-1379.14"/>
<polygon fill="none" stroke="#29235c" points="102.38,-1379.14 102.38,-1439.14 470.38,-1439.14 470.38,-1379.14 102.38,-1379.14"/>
<text text-anchor="start" x="113.38" y="-1400.34" font-family="Helvetica,sans-Serif" font-weight="bold" font-size="32.00" fill="#29235c">event_id</text>
<text text-anchor="start" x="234.32" y="-1400.34" font-family="Helvetica,sans-Serif" font-size="32.00" fill="#29235c"> &#160;&#160;&#160;</text>
<text text-anchor="start" x="361.58" y="-1400.34" font-family="Helvetica,sans-Serif" font-style="italic" font-size="32.00" fill="#29235c">integer</text>
<polygon fill="#e7e2dd" stroke="transparent" points="102.38,-1319.14 102.38,-1379.14 470.38,-1379.14 470.38,-1319.14 102.38,-1319.14"/>
<polygon fill="none" stroke="#29235c" points="102.38,-1319.14 102.38,-1379.14 470.38,-1379.14 470.38,-1319.14 102.38,-1319.14"/>
<text text-anchor="start" x="113.38" y="-1340.34" font-family="Helvetica,sans-Serif" font-weight="bold" font-size="32.00" fill="#29235c">manager_id</text>
<text text-anchor="start" x="282.31" y="-1340.34" font-family="Helvetica,sans-Serif" font-size="32.00" fill="#29235c"> &#160;&#160;&#160;</text>
<text text-anchor="start" x="361.58" y="-1340.34" font-family="Helvetica,sans-Serif" font-style="italic" font-size="32.00" fill="#29235c">integer</text>
<polygon fill="none" stroke="#29235c" stroke-width="2" points="101.38,-1318.14 101.38,-1500.14 471.38,-1500.14 471.38,-1318.14 101.38,-1318.14"/>
</g>
<!-- manager_event&#45;&gt;events -->
<!-- manager_event&#45;&gt;events -->
<g id="edge8" class="edge">
<title>manager_event:e&#45;&gt;events:w</title>
<path fill="none" stroke="#29235c" stroke-width="3" d="M471.38,-1409.14C598.39,-1409.14 560.15,-1221.82 678.13,-1211.58"/>
<polygon fill="#29235c" stroke="#29235c" stroke-width="3" points="678.61,-1215.06 688.46,-1211.14 678.32,-1208.07 678.61,-1215.06"/>
<text text-anchor="middle" x="679.56" y="-1220.74" font-family="Helvetica,sans-Serif" font-size="32.00" fill="#29235c">1</text>
<text text-anchor="middle" x="465.16" y="-1418.74" font-family="Helvetica,sans-Serif" font-size="32.00" fill="#29235c">*</text>
</g>
<!-- manager_event&#45;&gt;users -->
<!-- manager_event&#45;&gt;users -->
<g id="edge10" class="edge">
<title>manager_event:e&#45;&gt;users:w</title>
<path fill="none" stroke="#29235c" stroke-width="3" d="M471.38,-1349.14C528.5,-1349.14 546.9,-1321.08 572.76,-1270.14 602.39,-1211.76 561.76,-137.73 608.76,-92.14 651.62,-50.57 1101.89,-52.07 1146.16,-92.14 1328.82,-257.46 1017.16,-1184.36 1247.73,-1210.58"/>
<polygon fill="#29235c" stroke="#29235c" stroke-width="3" points="1247.83,-1214.09 1258.01,-1211.14 1248.22,-1207.1 1247.83,-1214.09"/>
<text text-anchor="middle" x="1266.9" y="-1182.34" font-family="Helvetica,sans-Serif" font-size="32.00" fill="#29235c">1</text>
<text text-anchor="middle" x="465.16" y="-1358.74" font-family="Helvetica,sans-Serif" font-size="32.00" fill="#29235c">*</text>
</g>
<!-- archived_events -->
<g id="archived_events" class="node">
<title>archived_events</title>
<ellipse fill="none" stroke="black" stroke-width="0" cx="286.38" cy="-1857.14" rx="286.26" ry="299.63"/>
<polygon fill="#1d71b8" stroke="transparent" points="86.38,-2007.14 86.38,-2067.14 487.38,-2067.14 487.38,-2007.14 86.38,-2007.14"/>
<polygon fill="none" stroke="#29235c" points="86.38,-2007.14 86.38,-2067.14 487.38,-2067.14 487.38,-2007.14 86.38,-2007.14"/>
<text text-anchor="start" x="108.15" y="-2028.34" font-family="Helvetica,sans-Serif" font-weight="bold" font-size="32.00" fill="#ffffff"> &#160;&#160;&#160;&#160;&#160;&#160;archived_events &#160;&#160;&#160;&#160;&#160;&#160;</text>
<polygon fill="#e7e2dd" stroke="transparent" points="86.38,-1947.14 86.38,-2007.14 487.38,-2007.14 487.38,-1947.14 86.38,-1947.14"/>
<polygon fill="none" stroke="#29235c" points="86.38,-1947.14 86.38,-2007.14 487.38,-2007.14 487.38,-1947.14 86.38,-1947.14"/>
<text text-anchor="start" x="96.94" y="-1967.34" font-family="Helvetica,sans-Serif" font-size="32.00" fill="#29235c">arc_event_name &#160;&#160;&#160;</text>
<text text-anchor="start" x="370.04" y="-1968.34" font-family="Helvetica,sans-Serif" font-style="italic" font-size="32.00" fill="#29235c">varchar</text>
<polygon fill="#e7e2dd" stroke="transparent" points="86.38,-1887.14 86.38,-1947.14 487.38,-1947.14 487.38,-1887.14 86.38,-1887.14"/>
<polygon fill="none" stroke="#29235c" points="86.38,-1887.14 86.38,-1947.14 487.38,-1947.14 487.38,-1887.14 86.38,-1887.14"/>
<text text-anchor="start" x="97.38" y="-1907.34" font-family="Helvetica,sans-Serif" font-size="32.00" fill="#29235c">arc_event_date &#160;&#160;&#160;</text>
<text text-anchor="start" x="369.71" y="-1908.34" font-family="Helvetica,sans-Serif" font-style="italic" font-size="32.00" fill="#29235c">varchar</text>
<polygon fill="#e7e2dd" stroke="transparent" points="86.38,-1827.14 86.38,-1887.14 487.38,-1887.14 487.38,-1827.14 86.38,-1827.14"/>
<polygon fill="none" stroke="#29235c" points="86.38,-1827.14 86.38,-1887.14 487.38,-1887.14 487.38,-1827.14 86.38,-1827.14"/>
<text text-anchor="start" x="97.38" y="-1847.34" font-family="Helvetica,sans-Serif" font-size="32.00" fill="#29235c">arc_event_size &#160;&#160;&#160;</text>
<text text-anchor="start" x="378.58" y="-1848.34" font-family="Helvetica,sans-Serif" font-style="italic" font-size="32.00" fill="#29235c">integer</text>
<polygon fill="#e7e2dd" stroke="transparent" points="86.38,-1767.14 86.38,-1827.14 487.38,-1827.14 487.38,-1767.14 86.38,-1767.14"/>
<polygon fill="none" stroke="#29235c" points="86.38,-1767.14 86.38,-1827.14 487.38,-1827.14 487.38,-1767.14 86.38,-1767.14"/>
<text text-anchor="start" x="97.38" y="-1787.34" font-family="Helvetica,sans-Serif" font-size="32.00" fill="#29235c">arc_event_desc &#160;&#160;&#160;</text>
<text text-anchor="start" x="369.71" y="-1788.34" font-family="Helvetica,sans-Serif" font-style="italic" font-size="32.00" fill="#29235c">varchar</text>
<polygon fill="#e7e2dd" stroke="transparent" points="86.38,-1707.14 86.38,-1767.14 487.38,-1767.14 487.38,-1707.14 86.38,-1707.14"/>
<polygon fill="none" stroke="#29235c" points="86.38,-1707.14 86.38,-1767.14 487.38,-1767.14 487.38,-1707.14 86.38,-1707.14"/>
<text text-anchor="start" x="97.38" y="-1727.34" font-family="Helvetica,sans-Serif" font-size="32.00" fill="#29235c">arc_event_loc &#160;&#160;&#160;</text>
<text text-anchor="start" x="369.71" y="-1728.34" font-family="Helvetica,sans-Serif" font-style="italic" font-size="32.00" fill="#29235c">varchar</text>
<polygon fill="#e7e2dd" stroke="transparent" points="86.38,-1647.14 86.38,-1707.14 487.38,-1707.14 487.38,-1647.14 86.38,-1647.14"/>
<polygon fill="none" stroke="#29235c" points="86.38,-1647.14 86.38,-1707.14 487.38,-1707.14 487.38,-1647.14 86.38,-1647.14"/>
<text text-anchor="start" x="97.38" y="-1667.34" font-family="Helvetica,sans-Serif" font-size="32.00" fill="#29235c">happened_on &#160;&#160;&#160;</text>
<text text-anchor="start" x="329.1" y="-1668.34" font-family="Helvetica,sans-Serif" font-style="italic" font-size="32.00" fill="#29235c">timestamp</text>
<polygon fill="none" stroke="#29235c" stroke-width="2" points="84.88,-1646.14 84.88,-2068.14 487.88,-2068.14 487.88,-1646.14 84.88,-1646.14"/>
</g>
<!-- invites -->
<g id="invites" class="node">
<title>invites</title>
<ellipse fill="none" stroke="black" stroke-width="0" cx="286.38" cy="-1004.14" rx="227.88" ry="257.27"/>
<polygon fill="#1d71b8" stroke="transparent" points="127.38,-1124.14 127.38,-1184.14 445.38,-1184.14 445.38,-1124.14 127.38,-1124.14"/>
<polygon fill="none" stroke="#29235c" points="127.38,-1124.14 127.38,-1184.14 445.38,-1184.14 445.38,-1124.14 127.38,-1124.14"/>
<text text-anchor="start" x="178.79" y="-1145.34" font-family="Helvetica,sans-Serif" font-weight="bold" font-size="32.00" fill="#ffffff"> &#160;&#160;&#160;&#160;&#160;&#160;invites &#160;&#160;&#160;&#160;&#160;&#160;</text>
<polygon fill="#e7e2dd" stroke="transparent" points="127.38,-1064.14 127.38,-1124.14 445.38,-1124.14 445.38,-1064.14 127.38,-1064.14"/>
<polygon fill="none" stroke="#29235c" points="127.38,-1064.14 127.38,-1124.14 445.38,-1124.14 445.38,-1064.14 127.38,-1064.14"/>
<text text-anchor="start" x="138.38" y="-1085.34" font-family="Helvetica,sans-Serif" font-weight="bold" font-size="32.00" fill="#29235c">event_id</text>
<text text-anchor="start" x="259.32" y="-1085.34" font-family="Helvetica,sans-Serif" font-size="32.00" fill="#29235c"> &#160;&#160;&#160;</text>
<text text-anchor="start" x="336.58" y="-1085.34" font-family="Helvetica,sans-Serif" font-style="italic" font-size="32.00" fill="#29235c">integer</text>
<polygon fill="#e7e2dd" stroke="transparent" points="127.38,-1004.14 127.38,-1064.14 445.38,-1064.14 445.38,-1004.14 127.38,-1004.14"/>
<polygon fill="none" stroke="#29235c" points="127.38,-1004.14 127.38,-1064.14 445.38,-1064.14 445.38,-1004.14 127.38,-1004.14"/>
<text text-anchor="start" x="138.3" y="-1025.34" font-family="Helvetica,sans-Serif" font-weight="bold" font-size="32.00" fill="#29235c">inv_user_id</text>
<text text-anchor="start" x="301.89" y="-1025.34" font-family="Helvetica,sans-Serif" font-size="32.00" fill="#29235c"> &#160;&#160;&#160;</text>
<text text-anchor="start" x="336.98" y="-1025.34" font-family="Helvetica,sans-Serif" font-style="italic" font-size="32.00" fill="#29235c">integer</text>
<polygon fill="#e7e2dd" stroke="transparent" points="127.38,-944.14 127.38,-1004.14 445.38,-1004.14 445.38,-944.14 127.38,-944.14"/>
<polygon fill="none" stroke="#29235c" points="127.38,-944.14 127.38,-1004.14 445.38,-1004.14 445.38,-944.14 127.38,-944.14"/>
<text text-anchor="start" x="138.38" y="-964.34" font-family="Helvetica,sans-Serif" font-size="32.00" fill="#29235c">response &#160;&#160;&#160;</text>
<text text-anchor="start" x="327.71" y="-965.34" font-family="Helvetica,sans-Serif" font-style="italic" font-size="32.00" fill="#29235c">varchar</text>
<polygon fill="#e7e2dd" stroke="transparent" points="127.38,-884.14 127.38,-944.14 445.38,-944.14 445.38,-884.14 127.38,-884.14"/>
<polygon fill="none" stroke="#29235c" points="127.38,-884.14 127.38,-944.14 445.38,-944.14 445.38,-884.14 127.38,-884.14"/>
<text text-anchor="start" x="138.38" y="-904.34" font-family="Helvetica,sans-Serif" font-size="32.00" fill="#29235c">message &#160;&#160;&#160;</text>
<text text-anchor="start" x="382.8" y="-905.34" font-family="Helvetica,sans-Serif" font-style="italic" font-size="32.00" fill="#29235c">text</text>
<polygon fill="#e7e2dd" stroke="transparent" points="127.38,-824.14 127.38,-884.14 445.38,-884.14 445.38,-824.14 127.38,-824.14"/>
<polygon fill="none" stroke="#29235c" points="127.38,-824.14 127.38,-884.14 445.38,-884.14 445.38,-824.14 127.38,-824.14"/>
<text text-anchor="start" x="138.38" y="-844.34" font-family="Helvetica,sans-Serif" font-size="32.00" fill="#29235c">dateSent &#160;&#160;&#160;</text>
<text text-anchor="start" x="311.68" y="-845.34" font-family="Helvetica,sans-Serif" font-style="italic" font-size="32.00" fill="#29235c">datetime</text>
<polygon fill="none" stroke="#29235c" stroke-width="2" points="126.38,-823.14 126.38,-1185.14 446.38,-1185.14 446.38,-823.14 126.38,-823.14"/>
</g>
<!-- invites&#45;&gt;events -->
<!-- invites&#45;&gt;events -->
<g id="edge12" class="edge">
<title>invites:e&#45;&gt;events:w</title>
<path fill="none" stroke="#29235c" stroke-width="3" d="M446.38,-1094.14C562.38,-1094.14 568.68,-1204.39 678.25,-1210.85"/>
<polygon fill="#29235c" stroke="#29235c" stroke-width="3" points="678.36,-1214.35 688.46,-1211.14 678.56,-1207.35 678.36,-1214.35"/>
<text text-anchor="middle" x="697.35" y="-1220.74" font-family="Helvetica,sans-Serif" font-size="32.00" fill="#29235c">1</text>
<text text-anchor="middle" x="440.16" y="-1103.74" font-family="Helvetica,sans-Serif" font-size="32.00" fill="#29235c">*</text>
</g>
<!-- invites&#45;&gt;users -->
<!-- invites&#45;&gt;users -->
<g id="edge14" class="edge">
<title>invites:e&#45;&gt;users:w</title>
<path fill="none" stroke="#29235c" stroke-width="3" d="M446.38,-1034.14C666.03,-1034.14 441.17,-201.13 608.76,-59.14 699.87,18.05 1057.73,21.12 1146.16,-59.14 1334.01,-229.64 1009.89,-1184.52 1247.79,-1210.6"/>
<polygon fill="#29235c" stroke="#29235c" stroke-width="3" points="1247.84,-1214.11 1258.01,-1211.14 1248.21,-1207.12 1247.84,-1214.11"/>
<text text-anchor="middle" x="1249.11" y="-1220.74" font-family="Helvetica,sans-Serif" font-size="32.00" fill="#29235c">1</text>
<text text-anchor="middle" x="440.16" y="-1043.74" font-family="Helvetica,sans-Serif" font-size="32.00" fill="#29235c">*</text>
</g>
<!-- locations -->
<g id="locations" class="node">
<title>locations</title>
<ellipse fill="none" stroke="black" stroke-width="0" cx="877.46" cy="-401.14" rx="265.33" ry="299.63"/>
<polygon fill="#1d71b8" stroke="transparent" points="692.46,-551.14 692.46,-611.14 1063.46,-611.14 1063.46,-551.14 692.46,-551.14"/>
<polygon fill="none" stroke="#29235c" points="692.46,-551.14 692.46,-611.14 1063.46,-611.14 1063.46,-551.14 692.46,-551.14"/>
<text text-anchor="start" x="752.58" y="-572.34" font-family="Helvetica,sans-Serif" font-weight="bold" font-size="32.00" fill="#ffffff"> &#160;&#160;&#160;&#160;&#160;&#160;locations &#160;&#160;&#160;&#160;&#160;&#160;</text>
<polygon fill="#e7e2dd" stroke="transparent" points="692.46,-491.14 692.46,-551.14 1063.46,-551.14 1063.46,-491.14 692.46,-491.14"/>
<polygon fill="none" stroke="#29235c" points="692.46,-491.14 692.46,-551.14 1063.46,-551.14 1063.46,-491.14 692.46,-491.14"/>
<text text-anchor="start" x="703.46" y="-512.34" font-family="Helvetica,sans-Serif" font-weight="bold" font-size="32.00" fill="#29235c">location_id</text>
<text text-anchor="start" x="856.39" y="-512.34" font-family="Helvetica,sans-Serif" font-size="32.00" fill="#29235c"> &#160;&#160;&#160;</text>
<text text-anchor="start" x="954.66" y="-512.34" font-family="Helvetica,sans-Serif" font-style="italic" font-size="32.00" fill="#29235c">integer</text>
<polygon fill="#e7e2dd" stroke="transparent" points="692.46,-431.14 692.46,-491.14 1063.46,-491.14 1063.46,-431.14 692.46,-431.14"/>
<polygon fill="none" stroke="#29235c" points="692.46,-431.14 692.46,-491.14 1063.46,-491.14 1063.46,-431.14 692.46,-431.14"/>
<text text-anchor="start" x="703.14" y="-451.34" font-family="Helvetica,sans-Serif" font-size="32.00" fill="#29235c">location_name &#160;&#160;&#160;</text>
<text text-anchor="start" x="946.12" y="-452.34" font-family="Helvetica,sans-Serif" font-style="italic" font-size="32.00" fill="#29235c">varchar</text>
<polygon fill="#e7e2dd" stroke="transparent" points="692.46,-371.14 692.46,-431.14 1063.46,-431.14 1063.46,-371.14 692.46,-371.14"/>
<polygon fill="none" stroke="#29235c" points="692.46,-371.14 692.46,-431.14 1063.46,-431.14 1063.46,-371.14 692.46,-371.14"/>
<text text-anchor="start" x="703.46" y="-391.34" font-family="Helvetica,sans-Serif" font-size="32.00" fill="#29235c">address &#160;&#160;&#160;</text>
<text text-anchor="start" x="945.79" y="-392.34" font-family="Helvetica,sans-Serif" font-style="italic" font-size="32.00" fill="#29235c">varchar</text>
<polygon fill="#e7e2dd" stroke="transparent" points="692.46,-311.14 692.46,-371.14 1063.46,-371.14 1063.46,-311.14 692.46,-311.14"/>
<polygon fill="none" stroke="#29235c" points="692.46,-311.14 692.46,-371.14 1063.46,-371.14 1063.46,-311.14 692.46,-311.14"/>
<text text-anchor="start" x="703.46" y="-331.34" font-family="Helvetica,sans-Serif" font-size="32.00" fill="#29235c">desc &#160;&#160;&#160;</text>
<text text-anchor="start" x="1000.88" y="-332.34" font-family="Helvetica,sans-Serif" font-style="italic" font-size="32.00" fill="#29235c">text</text>
<polygon fill="#e7e2dd" stroke="transparent" points="692.46,-251.14 692.46,-311.14 1063.46,-311.14 1063.46,-251.14 692.46,-251.14"/>
<polygon fill="none" stroke="#29235c" points="692.46,-251.14 692.46,-311.14 1063.46,-311.14 1063.46,-251.14 692.46,-251.14"/>
<text text-anchor="start" x="703.46" y="-271.34" font-family="Helvetica,sans-Serif" font-size="32.00" fill="#29235c">user_id &#160;&#160;&#160;</text>
<text text-anchor="start" x="915.56" y="-272.34" font-family="Helvetica,sans-Serif" font-style="italic" font-size="32.00" fill="#29235c">integer</text>
<text text-anchor="start" x="1013.37" y="-272.34" font-family="Helvetica,sans-Serif" font-size="32.00" fill="#29235c"> </text>
<text text-anchor="start" x="1022.26" y="-272.34" font-family="Helvetica,sans-Serif" font-weight="bold" font-size="32.00" fill="#29235c">(!)</text>
<polygon fill="#e7e2dd" stroke="transparent" points="692.46,-191.14 692.46,-251.14 1063.46,-251.14 1063.46,-191.14 692.46,-191.14"/>
<polygon fill="none" stroke="#29235c" points="692.46,-191.14 692.46,-251.14 1063.46,-251.14 1063.46,-191.14 692.46,-191.14"/>
<text text-anchor="start" x="703.46" y="-211.34" font-family="Helvetica,sans-Serif" font-size="32.00" fill="#29235c">created_at &#160;&#160;&#160;</text>
<text text-anchor="start" x="904.9" y="-212.34" font-family="Helvetica,sans-Serif" font-style="italic" font-size="32.00" fill="#29235c">timestamp</text>
<polygon fill="none" stroke="#29235c" stroke-width="2" points="690.96,-190.14 690.96,-612.14 1063.96,-612.14 1063.96,-190.14 690.96,-190.14"/>
</g>
<!-- locations&#45;&gt;users -->
<!-- locations&#45;&gt;users -->
<g id="edge2" class="edge">
<title>locations:e&#45;&gt;users:w</title>
<path fill="none" stroke="#29235c" stroke-width="3" d="M1064.46,-281.14C1272.05,-281.14 1054.38,-1180.52 1247.86,-1210.38"/>
<polygon fill="#29235c" stroke="#29235c" stroke-width="3" points="1247.78,-1213.89 1258.01,-1211.14 1248.3,-1206.91 1247.78,-1213.89"/>
<text text-anchor="middle" x="1249.11" y="-1182.34" font-family="Helvetica,sans-Serif" font-size="32.00" fill="#29235c">1</text>
<text text-anchor="middle" x="1058.23" y="-290.74" font-family="Helvetica,sans-Serif" font-size="32.00" fill="#29235c">*</text>
</g>
</g>
</svg>
